IKResults																																									
version=1																																									
nRows=12																																									
nColumns=42																																									
inDegrees=yes																																									
																																									
"Units are S.I. units (second, meters, Newtons, ...)"																																									
"If the header above contains a line with 'inDegrees', this indicates whether rotational values are in degrees (yes) or radians (no)."																																									
																																									
endheader																																									
time	pelvis_tilt	pelvis_list	pelvis_rotation	pelvis_tx	pelvis_ty	pelvis_tz	hip_flexion_r	hip_adduction_r	hip_rotation_r	knee_angle_r	knee_adduction_r	knee_angle_r_beta	ankle_angle_r	subtalar_angle_r	mtp_angle_r	hip_flexion_l	hip_adduction_l	hip_rotation_l	knee_angle_l	knee_adduction_l	knee_angle_l_beta	ankle_angle_l	subtalar_angle_l	mtp_angle_l	lumbar_extension	lumbar_bending	lumbar_rotation	arm_flex_r	arm_add_r	arm_rot_r	elbow_flex_r	pro_sup_r	wrist_flex_r	wrist_dev_r	arm_flex_l	arm_add_l	arm_rot_l	elbow_flex_l	pro_sup_l	wrist_flex_l	wrist_dev_l
15	-3.430512027	-4.872470168	11.5103557	1.087024727	0.954399976	0.479363019	5.983715053	2.067240656	3.368742329	10.36829037	2.2228717	0.180960805	5.144846086	-34.87319194	-3.69786052	35.34761824	-9.704634475	1.278459509	39.48390861	5.38393913	0.689124207	5.000705552	-12.24096477	2.799519407	-7.496447703	5.193694261	5.71008971	27.70559393	-22.34698336	-5.632505262	52.18957169	90.00000001	0	0	-1.363405688	-6.282471735	-2.240947655	21.70281158	90.00000001	0	0
15.01	-3.552028478	-5.179325921	11.52612101	1.085915404	0.953345205	0.478939549	5.277008946	2.426696194	3.471046836	9.522017511	2.2228717	0.166190558	5.25544269	-34.813899	-4.155046417	35.59878487	-9.706322724	1.046780169	36.19078558	5.38393913	0.631648367	4.67252695	-10.79425198	2.579804426	-7.397297202	5.539384146	5.767908774	29.15442986	-22.6403093	-5.5888941	54.95720878	90.00000001	0	0	-2.772349571	-6.336320446	-2.093101505	21.18119312	90.00000001	0	0
15.02	-3.698029508	-5.490118446	11.54395289	1.084859414	0.952161017	0.478386201	4.613973581	2.771819351	3.54568284	8.727208779	2.2228717	0.152318529	5.391894684	-34.7061736	-4.669956716	35.82494263	-9.694780136	0.821405194	32.98221181	5.38393913	0.575648191	4.382509131	-9.159972496	2.264707954	-7.264143846	5.890557527	5.799016373	30.56322986	-22.8694077	-5.601360706	57.74252946	90.00000001	0	0	-4.226805394	-6.38442001	-1.920550621	20.82558738	90.00000001	0	0
15.03	-3.862574847	-5.796105011	11.5623299	1.083878356	0.950880434	0.477711597	3.992802796	3.096746446	3.602735058	7.997263603	2.2228717	0.139578582	5.555005234	-34.56075311	-5.224887281	36.02591496	-9.668010188	0.583984415	29.9248627	5.38393913	0.522287382	4.146492733	-7.398678075	1.869976551	-7.102933037	6.236266691	5.804994862	31.92700079	-23.03119201	-5.659867806	60.52467098	90.00000001	0	0	-5.707109623	-6.423317129	-1.72929707	20.59507362	90.00000001	0	0
15.04	-4.039104866	-6.088344264	11.57850668	1.08299575	0.949536674	0.476927726	3.410562911	3.395910433	3.654230302	7.34457852	2.2228717	0.128187078	5.745744841	-34.38985451	-5.798406658	36.19898359	-9.624407409	0.316731827	27.08368276	5.38393913	0.472699438	3.975618319	-5.590345367	1.419596615	-6.920352589	6.565130156	5.788761972	33.23856523	-23.12400567	-5.754408993	63.28641834	90.00000001	0	0	-7.193606373	-6.450510569	-1.526743389	20.45122268	90.00000001	0	0
15.05	-4.221118817	-6.358226501	11.58871919	1.082235618	0.948160892	0.476048592	2.863479843	3.664171062	3.712665267	6.779598316	2.2228717	0.118326314	5.965333594	-34.20566905	-6.367303092	36.33940813	-9.562555798	0.005617052	24.51779508	5.38393913	0.427916249	3.874168783	-3.828649218	0.943379128	-6.723122857	6.86598541	5.754363137	34.48890846	-23.14779771	-5.87583371	66.01460341	90.00000001	0	0	-8.667652533	-6.464458699	-1.320616754	20.36023471	90.00000001	0	0
15.06	-4.402852292	-6.597955796	11.58848026	1.081620819	0.94678003	0.475088758	2.34739598	3.896916013	3.789509798	6.310171061	2.2228717	0.110133262	6.215356883	-34.01889128	-6.908609879	36.4411725	-9.481026896	-0.356662814	22.27634193	5.38393913	0.388795512	3.837824804	-2.2133292	0.474167939	-6.517306927	7.128497522	5.706660296	35.66769315	-23.1042601	-6.016327464	68.70022779	90.00000001	0	0	-10.11245047	-6.464547268	-1.117993917	20.29453693	90.00000001	0	0
15.07	-4.579859521	-6.800938325	11.57293486	1.081171261	0.94541504	0.474062038	1.85835365	4.090148157	3.893899194	5.941320508	2.2228717	0.103695606	6.497942768	-33.83747438	-7.401408319	36.49789799	-9.378248645	-0.768496396	20.39474948	5.38393913	0.355955528	3.852744471	-0.841466879	0.04491229	-6.307744899	7.343664894	5.65095814	36.76390048	-22.99689371	-6.169584633	71.3383042	90.00000001	0	0	-11.51362054	-6.451027513	-0.924587866	20.2337263	90.00000001	0	0
15.08	-4.749416918	-6.962031816	11.53723872	1.08090218	0.944079753	0.472980501	1.393232324	4.240556609	4.031686358	5.675481519	2.2228717	0.09905584	6.815994264	-33.66576708	-7.82821663	36.50384758	-9.252487646	-1.218447242	18.8919296	5.38393913	0.329726373	3.895815758	0.20135032	-0.314199782	-6.097702906	7.504166166	5.59261101	37.76654573	-22.83096811	-6.330768816	73.92742933	90.00000001	0	0	-12.85945266	-6.424934724	-0.744374163	20.16479992	90.00000001	0	0
15.09	-4.910690543	-7.077629548	11.47692332	1.080822616	0.942780593	0.471853902	0.950358331	4.345562885	4.204955097	5.513178938	2.2228717	0.096223126	7.173430317	-33.50413582	-8.17589173	36.45494168	-9.10195693	-1.685914238	17.76888349	5.38393913	0.31012552	3.936298108	0.848960834	-0.578374875	-5.888792462	7.604516612	5.536645695	38.66541584	-22.61334535	-6.496366594	76.46910491	90.00000001	0	0	-14.14081313	-6.387990537	-0.579557323	20.08167376	90.00000001	0	0
15.1	-5.064642134	-7.14557946	11.38822	1.080934273	0.941517215	0.470689543	0.530005105	4.403334763	4.412011502	5.454064502	2.2228717	0.095191384	7.575354171	-33.34910832	-8.436074187	36.34969608	-8.925031135	-2.14338035	17.00904182	5.38393913	0.296863782	3.938882843	1.06073956	-0.730451388	-5.68117153	7.641036196	5.487422271	39.45176541	-22.35215441	-6.66401308	78.96684417	90.00000001	0	0	-15.35072789	-6.342487126	-0.430820604	19.98406191	90.00000001	0	0
15.11	-5.213681442	-7.164963817	11.26833329	1.081230902	0.940284055	0.469492484	0.134703825	4.412762019	4.647787341	5.498161546	2.2228717	0.095961023	8.02804358	-33.19400058	-8.605283874	36.18997414	-8.720521638	-2.559964451	16.5804616	5.38393913	0.289383646	3.867977136	0.825203976	-0.762583298	-5.473994917	7.611660736	5.448343526	40.11888342	-22.05633464	-6.832320119	81.42514849	90.00000001	0	0	-16.48370941	-6.291153726	-0.297765015	19.87587002	90.00000001	0	0
